<svg version="1.2" xmlns="http://www.w3.org/2000/svg" viewBox="0 0 648 427" width="225" height="225"><defs><clipPath clipPathUnits="userSpaceOnUse" id="cp1"><path d="m0 0h648v427h-648z"/></clipPath><clipPath clipPathUnits="userSpaceOnUse" id="cp2"><path d="m535.81 302h64v125h-64z"/></clipPath><clipPath clipPathUnits="userSpaceOnUse" id="cp3"><path d="m287 157h214v270h-214z"/></clipPath></defs><style>.a{fill:#fff}.b{fill:#f16a51}.c{fill:#c1c1c1}.d{fill:#444b51}.e{fill:#383f45}.f{fill:#fbc39d}.g{fill:#f9ac7f}.h{fill:#3a0909}.i{fill:#e6e6e6}.j{fill:#d2d3d5}.k{fill:#858a8e}.l{fill:#ff553c}.m{fill:#211f1d}.n{fill:#111110}.o{fill:#f4f4f4}.p{fill:#b14935}</style><g clip-path="url(#cp1)"><path class="a" d="m0 0h648v427h-648z"/><path class="a" d="m0 0h648v427h-648z"/><path class="b" d="m0 0h648v427h-648z"/><g clip-path="url(#cp2)"><path class="c" d="m583.5 381.6h-37.5c-0.7 0-1.2 0.6-1.2 1.2v28.9c0 8.4 6.7 15.3 15 15.3h10c8.2 0 15-6.9 15-15.3v-28.9c-0.1-0.6-0.7-1.2-1.3-1.2z"/><path class="c" d="m579 422.1c8.4-4.9 22.9-19.2 20.6-29.3-0.6-2.7-2.3-4.7-4.8-5.9-5.5-2.7-13.6 0.6-14.5 0.9l2.7 5.7c1.9-0.9 6.6-2.2 8.9-1.1 0.5 0.2 0.9 0.6 1.2 1.7 1.4 5.9-10 18.3-17.5 22.7z"/><path class="a" d="m568.6 372.5c0.1 0.3 0.1-0.1 0.2-0.3l0.2-1c0.2-0.6 0.3-1.3 0.4-1.9 0.1-1.4 0.2-2.8 0.2-4.3-0.1-2.9-0.7-5.9-1.7-8.6-1.2-2.8-2.9-5.1-4.6-6.9-1-1-1.9-1.7-2.9-2.4l-2.4-1.7c-2.7-1.9-5.2-4.5-6.9-7-0.9-1.3-1.5-2.6-1.7-3.7-0.2-1.1-0.2-1.8-0.1-2.3 0.1-0.3 0.1-0.5 0.3-0.9 0.3-0.3 0.4-0.9 0.8-1.4 0.5-1.1 1.4-2.1 2.2-3 1.8-1.7 3.9-2.9 6-3.2 2.2-0.3 4.4 0.2 6.7 1.2 1 0.6 2.2 1.2 3.3 2.2 0.6 0.5 1 0.9 1.6 1.5 0.6 0.6 1.1 1 1.8 1.2l2.3 0.3c4.8 0.9 9.2-3.6 9.9-10.1 0.3-3.5-0.5-7-2.1-9.5-0.7-1.1-1.7-2-2.6-2.7-1-0.7-2.1-1.3-3-2-2-1.3-4.3-2.3-6.5-3-4.5-1.6-9.6-1.7-14.3-0.2-4.8 1.6-9.2 4.9-12.8 9.4-1.8 2.5-3.3 5-4.5 8-0.6 1.4-1.1 3.1-1.5 4.9-0.7 2.2-1.1 4.4-1.1 6.4-0.1 4.4 1 8.4 2.4 11.5 1.4 3.1 3.2 5.4 4.9 7.3 3.6 3.9 7.4 6.1 11.2 7.8l1.4 0.6 0.7 0.2 0.5 0.1c0.7 0.3 1.3 0.5 1.9 0.9 1.1 0.6 2.3 1.3 3.3 2.5 0.9 1.1 1.9 2.5 2.6 4.2 0.3 0.9 0.7 1.8 0.9 2.9 0.1 0.5 0.3 1.1 0.5 1.6l0.2 0.8c0.1 0.4 0.1 0.5 0.4 1.5 0.2 0.8 0.8 1.3 1.5 0.9 0.3-0.1 0.6-0.9 0.4-1.8z"/></g><g clip-path="url(#cp3)"><path class="d" d="m417.9 282.9h-47.9c-12.3 0-22.3-10-22.3-22.4v-48.2h90.4v50.3c0 11.3-9 20.3-20.2 20.3z"/><path class="e" d="m463.4 353.6l-136.8-2.3v-14.6c0-23.8 29.3-46 57.9-46h21.6c25.4 0 57.2 22.4 57.2 43.5v19.4z"/><path class="f" d="m401.9 260.6h-17.4c-3.6 0-6.4 2.9-6.4 6.4v27.5c0 8.3 6.7 15.1 15.1 15.1 8.2 0 15.1-6.7 15.1-15.1v-27.5c0-3.5-2.9-6.4-6.4-6.4z"/><path class="g" d="m378.1 290.6c0 0 1.2 8.9 15.1 8.9 13.8 0 15.1-8.9 15.1-8.9z"/><path class="g" d="m436.5 226.3c-5.2 0-9.5 4.4-9.5 9.8 0 5.5 4.3 9.9 9.5 9.9 5.3 0 9.6-4.4 9.6-9.9-0.1-5.4-4.3-9.8-9.6-9.8z"/><path class="g" d="m349.9 226.3c-5.3 0-9.6 4.4-9.6 9.8 0 5.5 4.3 9.9 9.6 9.9 5.2 0 9.5-4.4 9.5-9.9 0-5.4-4.3-9.8-9.5-9.8z"/><path class="f" d="m389.7 293.5c1.1 0.2 2.3 0.2 3.5 0.2 3.5 0 7-0.4 10.3-1.3v-0.1c18.5-4.9 32.1-22.3 32.1-43v-51.8c0-24.5-19.1-20.6-42.4-20.6-23.5 0.1-42.5-3.8-42.5 20.6v51.9c0 23.2 17.2 42.3 39 44.1z"/><path class="h" d="m430.3 232.4v13.9h-18.3c0 0-3.7-10.1-18.8-10.1-15.1 0-18.9 10.1-18.9 10.1h-18.1v-13.9c0-5.6-2-7.4-5.5-8v25c0 23.2 17.2 42.2 39 44.1l-0.1 0.1c1.2 0.1 2.3 0.2 3.6 0.2 1.1 0 2.4-0.1 3.5-0.2l-0.1-0.1c21.8-1.9 39-20.9 39-44.1v-25c-3.3 0.6-5.3 2.4-5.3 8z"/><path class="i" d="m380.1 252.4h25.5c0 0-2.3 10.1-12.8 10.1-10.4 0-12.7-10.1-12.7-10.1z"/><path class="c" d="m493.5 427h-199.2c-4.1 0-7.4-3.4-7.4-7.5v-0.3c0-4.1 3.3-7.4 7.4-7.4h199.3c4 0 7.4 3.3 7.4 7.4v0.3c-0.1 4.1-3.5 7.5-7.5 7.5z"/><path class="j" d="m475.2 427h-163.9c-5.2 0-9.5-4.3-9.5-9.6v-94.3c0-5.3 4.3-9.6 9.5-9.6h164c5.3 0 9.6 4.3 9.6 9.6v94.3c-0.1 5.3-4.3 9.6-9.7 9.6z"/><path class="a" d="m391.1 383.1c-7.1 0-12.8-5.8-12.8-12.9 0-7 5.7-12.8 12.8-12.8 7 0 12.8 5.8 12.8 12.8 0 7.1-5.8 12.9-12.8 12.9z"/><path class="g" d="m394 242.1h-2.4c-2.9 0-5.1-2.5-4.8-5.4l1.2-9.9c0.3-2.4 2.4-4.2 4.8-4.2 2.5 0 4.6 1.8 4.9 4.2l1.2 9.9c0.2 2.9-2 5.4-4.9 5.4z"/><path class="k" d="m396.4 164.4h-8.9c-2 0-3.6-1.6-3.6-3.6v-0.2c0-2 1.6-3.6 3.6-3.6h8.9c2 0 3.6 1.6 3.6 3.6v0.2c0 2-1.7 3.6-3.6 3.6z"/><path class="e" d="m347.7 212.3h90.4v-10.7c0-22-17.8-39.9-39.7-39.8h-11.1c-21.9 0-39.6 17.8-39.6 39.9z"/><path class="h" d="m396 185.3h-7.6c-6.8 0-12.2 5.4-12.2 12.3v8.5h32.1v-8.5c0-6.9-5.5-12.3-12.3-12.3z"/><path class="k" d="m376.8 199.6h31.6v10.6h-31.6c-2.9 0-5.3-2.4-5.3-5.4 0.1-2.9 2.4-5.2 5.3-5.2z"/><path class="l" d="m381.9 205c0 1.5-1.1 2.7-2.6 2.7-1.4 0-2.6-1.2-2.6-2.7 0-1.4 1.2-2.6 2.6-2.6 1.5 0 2.6 1.2 2.6 2.6z"/><path class="m" d="m381.9 205c0 1.5-1.1 2.7-2.6 2.7-1.4 0-2.6-1.2-2.6-2.7 0-1.4 1.2-2.6 2.6-2.6 1.5 0 2.6 1.2 2.6 2.6z"/><path class="m" d="m390.5 207.6c1.4-0.2 2.3-1.6 2.1-3-0.2-1.4-1.6-2.4-3-2.2-1.4 0.3-2.4 1.6-2.2 3.1 0.3 1.4 1.6 2.4 3.1 2.1z"/><path class="m" d="m403.1 205c0 1.5-1.1 2.7-2.6 2.7-1.5 0-2.6-1.2-2.6-2.7 0-1.4 1.1-2.6 2.6-2.6 1.5 0 2.6 1.2 2.6 2.6z"/><path class="n" d="m376.5 222.6c0 2.2-1.8 3.9-3.9 3.9-2.2 0-3.9-1.8-3.9-3.9 0-2.2 1.8-3.9 3.9-3.9 2.1-0.1 3.9 1.7 3.9 3.9z"/><path class="n" d="m415.6 222.6c0 2.2-1.8 3.9-3.9 3.9-2.2 0-3.9-1.8-3.9-3.9 0-2.2 1.8-3.9 3.9-3.9 2.1-0.1 3.9 1.7 3.9 3.9z"/><path class="h" d="m408.5 199.5c0 0 7.7-4.7 7.1-12.4l-10 2.8 2.1-8.6-8.8 9.1z"/></g><path fill-rule="evenodd" class="a" d="m77.9 68.6v11.5h28.1v17.1h-28.1v21.5h-22.6v-67.2h54.6v17.1zm58.2 3.3q5.7-6.6 17-6.6v19.2q-2.6-0.4-4.8-0.4-11.2 0-11.2 11.3v23.3h-21.7v-52.5h20.7zm50.4 47.8q-8.8 0-15.8-3.4-6.9-3.6-10.8-9.7-4-6.3-4-14.1 0-7.9 4-14.1 3.9-6.2 10.8-9.7 7-3.4 15.8-3.4 8.8 0 15.7 3.4 7 3.5 10.9 9.7 3.9 6.2 3.9 14.1 0 7.8-3.9 14.1-3.9 6.1-10.9 9.7-6.9 3.4-15.7 3.4zm0-16.9q3.7 0 6.1-2.7 2.4-2.7 2.4-7.6 0-4.9-2.4-7.6-2.4-2.7-6.1-2.7-3.8 0-6.2 2.7-2.4 2.7-2.4 7.6 0 4.9 2.4 7.6 2.4 2.7 6.2 2.7zm73.8-37.5q9.7 0 15.5 5.8 6 5.9 6 17.7v30h-21.7v-26.2q0-9.1-6.5-9.1-3.6 0-5.9 2.6-2.2 2.5-2.2 8v24.7h-21.7v-52.5h20.6v5.1q3.1-3 7.1-4.6 4.1-1.5 8.8-1.5zm69.6 51.6q-4.9 2.8-13.4 2.8-11 0-16.9-5.3-6-5.3-6-16v-13.4h-7.2v-15.9h7.2v-14.7h21.7v14.7h10.7v15.9h-10.7v13.2q0 2.4 1.2 3.8 1.3 1.3 3.3 1.3 2.8 0 4.9-1.4zm4.1-34.1h28.8v16.3h-28.8zm94.4 18.8v17.1h-55.9v-67.2h54.6v17.1h-32.3v7.9h28.4v16.3h-28.4v8.8zm44.5-36.4q9.7 0 15.6 5.9 5.9 5.9 5.9 17.7v29.9h-21.7v-26.2q0-9-6.4-9-3.7 0-6 2.6-2.2 2.5-2.2 7.9v24.7h-21.7v-52.5h20.7v5.2q3-3.1 7.1-4.6 4-1.6 8.7-1.6zm90-17.7v71.2h-20.7v-4.3q-4.7 5.3-14.4 5.3-6.9 0-12.7-3.3-5.8-3.4-9.3-9.6-3.3-6.2-3.3-14.4 0-8.2 3.3-14.3 3.5-6.2 9.3-9.5 5.8-3.4 12.7-3.4 8.8 0 13.4 4.6v-22.3zm-29.9 55.3q3.8 0 6.2-2.7 2.4-2.8 2.4-7.7 0-4.9-2.4-7.6-2.4-2.7-6.2-2.7-3.7 0-6.1 2.7-2.4 2.7-2.4 7.6 0 4.9 2.4 7.7 2.4 2.7 6.1 2.7z"/><path class="o" d="m96 259.5c25.1 0 45.4-20.3 45.4-45.3 0-25-20.3-45.3-45.4-45.3-25 0-45.3 20.3-45.3 45.3 0 25 20.3 45.3 45.3 45.3z"/><path class="a" d="m96 173c-22.4 0-40.6 18.3-40.6 40.6 0 22.3 18.2 40.6 40.6 40.6 22.3 0 40.6-18.2 40.6-40.6-0.1-22.3-18.3-40.6-40.6-40.6z"/><path fill-rule="evenodd" class="p" d="m96 260.6c-26 0-47.1-21.1-47.1-47.1 0-26 21.1-47.1 47.1-47.1 26 0 47.1 21.1 47.1 47.1-0.1 26.1-21.1 47.1-47.1 47.1zm0-87.6c-22.4 0-40.6 18.3-40.6 40.6 0 22.3 18.2 40.6 40.6 40.6 22.3 0 40.6-18.2 40.6-40.6-0.1-22.3-18.3-40.6-40.6-40.6z"/><path class="m" d="m96.1 222.5c-0.9 0-1.7-0.5-2.1-1.3l-10.7-21c-0.6-1.2-0.1-2.7 1.1-3.3 1.2-0.6 2.7-0.1 3.3 1.1l10.7 21c0.6 1.1 0.1 2.7-1.1 3.3-0.3 0.1-0.8 0.2-1.2 0.2z"/><path class="m" d="m87.4 219.7c-0.6 0-1.1-0.5-1.2-1.1-0.1-0.7 0.3-1.3 0.9-1.4l40-6.9c0.7-0.1 1.3 0.4 1.4 0.9 0.2 0.8-0.3 1.4-0.9 1.5l-40 6.9c-0.1 0.1-0.1 0.1-0.2 0.1z"/></g></svg>